<?xml version="1.0" encoding="UTF-8" standalone="no"?>
<svg
   width="11.55"
   height="16"
   viewBox="0 0 11.55 16"
   version="1.1"
   xml:space="preserve"
   id="SVGRoot"
   inkscape:export-filename="historias_medicas/src/assets/H.svg"
   inkscape:export-xdpi="96"
   inkscape:export-ydpi="96"
   inkscape:version="1.3.2 (091e20ef0f, 2023-11-25, custom)"
   sodipodi:docname="favicon.svg"
   xmlns:inkscape="http://www.inkscape.org/namespaces/inkscape"
   xmlns:sodipodi="http://sodipodi.sourceforge.net/DTD/sodipodi-0.dtd"
   xmlns="http://www.w3.org/2000/svg"
   xmlns:svg="http://www.w3.org/2000/svg"><defs
   id="defs126">
  
  
  
  
  
  
  
  
  
  
  
  
  
  
  
  
  
  
  
  
  
  
  
  
  
  
  
  
  
  
  
  
  
  
  
  
  
  
  
  
  
  
  
  
  
  
  
  
  
  
  
  
  
  
  
  
  
  
  
  
  
  
  
  
  
  
  
  
  
  
  
  
  
  
  
  
  
  
  
  
  
  
  
  
  
  
  
  
  
  
  
  
  
  
  
  
  
  
  
  
  
  
  
  
  
  
  
  
  
  
  
  
  
  
  
  
  
  
  
  
  
  
  
  
  
  
</defs>
<sodipodi:namedview
   pagecolor="#a9a9a9"
   bordercolor="#292929"
   borderopacity="1"
   inkscape:showpageshadow="2"
   inkscape:pageopacity="0.0"
   inkscape:pagecheckerboard="0"
   inkscape:deskcolor="#232323"
   id="namedview1"
   inkscape:zoom="33.5"
   inkscape:cx="5.9850746"
   inkscape:cy="8"
   inkscape:window-width="1366"
   inkscape:window-height="740"
   inkscape:window-x="0"
   inkscape:window-y="0"
   inkscape:window-maximized="1"
   inkscape:current-layer="SVGRoot" />
<style
   type="text/css"
   id="style1">
g.prefab path {
  vector-effect:non-scaling-stroke;
  -inkscape-stroke:hairline;
  fill: none;
  fill-opacity: 1;
  stroke-opacity: 1;
  stroke: #00349c;
}
</style>
<path
   d="m 8.0731729,0 h 2.3066211 l 1.15331,1.9975336 -1.15331,1.9975337 H 8.0731729 L 6.9198625,1.9975336 Z"
   id="path41"
   style="fill:#00ffff;stroke-width:0.115331"
   inkscape:export-filename="H.svg"
   inkscape:export-xdpi="96"
   inkscape:export-ydpi="96" /><path
   d="M 1.1533104,0 H 3.4599313 L 4.6132417,1.9975336 3.4599313,3.9950673 H 1.1533104 L 0,1.9975336 Z"
   id="path43"
   style="fill:#ffffff;stroke-width:0.115331" /><path
   d="m 8.0731729,12.004933 h 2.3066211 l 1.15331,1.997533 L 10.379794,16 H 8.0731729 L 6.9198625,14.002466 Z"
   id="path56"
   style="fill:#ffffff;stroke-width:0.115331" /><path
   d="M 1.1533104,12.004933 H 3.4599313 L 4.6132417,14.002466 3.4599313,16 H 1.1533104 L 0,14.002466 Z"
   id="path58"
   style="fill:#00ffff;stroke-width:0.115331" /><path
   d="m 8.0731729,8.0098656 h 2.3066211 l 1.15331,1.9975334 -1.15331,1.997534 H 8.0731729 L 6.9198625,10.007399 Z"
   id="path71"
   style="fill:#ff0000;stroke-width:0.115331" /><path
   d="M 1.1533104,8.0098656 H 3.4599313 L 4.6132417,10.007399 3.4599313,12.004933 H 1.1533104 L 0,10.007399 Z"
   id="path73"
   style="fill:#ff0000;stroke-width:0.115331" /><path
   d="M 4.6132417,6.0123323 H 6.9198625 L 8.0731729,8.0098656 6.9198625,10.007399 H 4.6132417 L 3.4599313,8.0098656 Z"
   id="path83"
   style="fill:#ffffff;stroke-width:0.115331" /><path
   d="m 8.0731729,4.0147987 h 2.3066211 l 1.15331,1.9975336 -1.15331,1.9975333 H 8.0731729 L 6.9198625,6.0123323 Z"
   id="path91"
   style="fill:#ff0000;stroke-width:0.115331" /><path
   d="M 1.1533104,4.0147987 H 3.4599313 L 4.6132417,6.0123323 3.4599313,8.0098656 H 1.1533104 L 0,6.0123323 Z"
   id="path93"
   style="fill:#ff0000;stroke-width:0.115331" />
</svg>
